<svg id="draft1" xmlns="http://www.w3.org/2000/svg" viewBox="0 0 867 850.73"><defs><style>.cls-1,.cls-2{fill:#f2aac7;}.cls-2{fill-rule:evenodd;}</style></defs><title>hp-logo-transparent</title><path class="cls-1" d="M426.84,700.57c-12.63.16-47.19-3.12-59.55-5.68-58.8-12.18-108.28-42-147.63-86.24-60.33-67.85-80.81-148.11-63.42-237.15,11-56.53,39.07-103.73,82.43-142.05,39.72-35.07,84.83-58.95,136.92-69.21,13.51-2.67,27.06-5.57,40.8-6.61,7.53-.57,192.25.18,288.34,0.28-0.09,89.44-.15,263.34-0.25,268.28-0.06,2.91-.43,10.5-0.47,11.83-2.53,48.82-15.44,86.58-41.06,128.87C620,633.78,560.31,680.46,478.19,696.68,450.31,700.58,446.11,700.32,426.84,700.57Zm231.7-494.25c0-10-2.12-12.09-12.2-12-10.3.07-20.55,0.37-30.84,0.42-63.57.45-127.14,0.33-190.69,1.61a268.82,268.82,0,0,0-58,7.46c-65,16-112.17,56.49-146.36,112.54-18.81,30.87-27.84,65.42-29.14,101.57-1.89,51.24,10.17,98.48,40.84,140.66,36.09,49.61,82.55,82.84,143.06,95.29,54.88,11.35,108,5,157.26-21.09,74.74-39.59,117.43-102.51,124.38-187C660.07,406.59,658.52,246.77,658.53,206.32Z"/><path class="cls-2" d="M543.4,410.5C470.49,354,399.24,298.67,328,243.41c0.25-.93.49-1.83,0.76-2.74,7-3.13,13.93-6.62,21.13-9.35a208.16,208.16,0,0,1,74.92-13.85q99.32,0.24,198.67.22c13.67,0,15.21,1.55,15.21,15.25-0.06,66.22,1,132.48-.48,198.69-2,83.58-41.11,146.65-114.69,185.3-88.93,46.75-193.47,24-257.2-47C250,551.82,238,531.12,227.93,508.95c-11.33-24.78-16.36-50.48-15.72-80.12,78.88,41.69,156.5,82.7,234.12,123.68,0.46-.43.92-0.87,1.4-1.34-3.3-3.27-6.32-6.91-9.9-9.77-23.37-18.6-47-36.76-70.2-55.52Q323.5,450.31,280,414c-17.3-14.36-34.16-29.21-51.43-43.56-3.55-2.92-4.43-5.7-2.89-9.72,2.3-5.94,4.5-11.9,7.05-18.58,86.83,46.63,172.61,92.65,258.38,138.71,0.64-.93,1.28-1.82,1.94-2.74-76.26-62.24-152.55-124.49-229.67-187.44,5.38-6.19,9.6-11.66,14.64-16.25,1.48-1.34,5.85-1,8,.13,26.3,14.18,52.36,28.75,78.56,43Q438.74,358,513,398.32c7.58,4.06,15.27,7.84,23,11.48C537.82,410.6,540.07,410.23,543.4,410.5Z"/></svg>